<svg width="195" height="195" xmlns="http://www.w3.org/2000/svg" xmlns:xlink="http://www.w3.org/1999/xlink" xml:space="preserve" overflow="hidden"><g transform="translate(-110 -251)"><path d="M110 251C174.35 251 238.7 251 305 251 305 315.35 305 379.7 305 446 240.65 446 176.3 446 110 446 110 381.65 110 317.3 110 251Z" fill="#FEFEFE"/><path d="M258.2 309.067C257.625 309.267 257.049 309.467 256.457 309.673 251.771 311.403 248.419 312.891 245.2 316.867 244.235 318.046 244.235 318.046 243.25 319.25 240.35 324.635 240.574 329.765 241.767 335.642 244.383 342 248.193 344.894 254.3 347.742 259.602 350.269 264.173 352.561 267.138 357.925 268.589 363.468 267.748 368.215 265.133 373.2 261.578 378.455 257.53 381.379 251.267 382.733 244.001 383.596 238.126 381.462 232.092 377.479 228.318 374.052 225.545 369.571 222.667 365.4 223.203 366.33 223.739 367.259 224.292 368.217 225.569 370.431 226.72 372.64 227.867 374.933 222.433 374.933 216.999 374.933 211.4 374.933 211.114 366.353 210.828 357.773 210.533 348.933 209.032 351.99 209.032 351.99 207.5 355.108 204.144 361.878 200.474 368.407 196.667 374.933 191.233 374.933 185.799 374.933 180.2 374.933 179.914 366.353 179.628 357.773 179.333 348.933 176.065 355.219 176.065 355.219 172.8 361.507 172.387 362.301 171.973 363.095 171.547 363.914 171.129 364.717 170.712 365.52 170.282 366.348 168.733 369.241 167.094 372.085 165.467 374.933 150.881 374.933 136.295 374.933 121.267 374.933 121.267 369.499 121.267 364.065 121.267 358.467 130.705 358.181 140.143 357.895 149.867 357.6 149.867 356.742 149.867 355.884 149.867 355 140.429 354.714 130.991 354.428 121.267 354.133 121.267 348.699 121.267 343.265 121.267 337.667 130.705 337.381 140.143 337.095 149.867 336.8 149.867 335.942 149.867 335.084 149.867 334.2 140.429 333.914 130.991 333.628 121.267 333.333 121.267 327.899 121.267 322.465 121.267 316.867 125.831 316.767 130.392 316.681 134.957 316.629 136.506 316.607 138.057 316.577 139.606 316.54 141.844 316.487 144.081 316.463 146.319 316.444 147.003 316.421 147.688 316.399 148.393 316.376 154.914 316.372 158.994 319.109 163.57 323.583 165.217 326.029 166.014 327.729 166.885 330.476 167.222 331.524 167.222 331.524 167.565 332.593 167.813 333.388 167.813 333.388 168.067 334.2 168.325 333.706 168.582 333.211 168.848 332.702 170.012 330.474 171.179 328.247 172.346 326.021 172.752 325.243 173.158 324.465 173.576 323.663 173.965 322.923 174.353 322.183 174.753 321.42 175.111 320.735 175.47 320.049 175.839 319.343 176.733 317.733 176.733 317.733 177.6 316.867 179.017 316.791 180.437 316.774 181.856 316.782 182.628 316.784 183.4 316.786 184.195 316.789 185.676 316.8 185.676 316.8 187.188 316.812 191.88 316.839 191.88 316.839 196.667 316.867 197.096 326.734 197.096 326.734 197.533 336.8 198.644 334.751 198.644 334.751 199.778 332.66 200.745 330.88 201.712 329.1 202.679 327.321 203.168 326.419 203.657 325.517 204.16 324.587 204.627 323.73 205.093 322.872 205.574 321.989 206.005 321.195 206.436 320.4 206.88 319.582 207.933 317.733 207.933 317.733 208.8 316.867 210.217 316.791 211.637 316.774 213.056 316.782 213.913 316.785 214.77 316.788 215.654 316.79 216.556 316.798 217.458 316.805 218.388 316.812 219.746 316.818 219.746 316.818 221.131 316.824 223.377 316.835 225.622 316.849 227.867 316.867 228.296 318.583 228.296 318.583 228.733 320.333 229.248 319.873 229.763 319.413 230.294 318.939 236.206 313.9 250.018 304.976 258.2 309.067Z" fill="#040D3C"/><path d="M258.2 309.067C257.625 309.267 257.049 309.467 256.457 309.673 251.771 311.403 248.419 312.891 245.2 316.867 244.557 317.653 243.913 318.44 243.25 319.25 240.35 324.635 240.574 329.765 241.767 335.642 244.383 342 248.193 344.894 254.3 347.742 259.602 350.269 264.173 352.561 267.138 357.925 268.589 363.468 267.748 368.215 265.133 373.2 261.578 378.455 257.53 381.379 251.267 382.733 244.001 383.596 238.126 381.462 232.092 377.479 228.991 374.66 226.708 371.102 224.339 367.672 222.781 365.382 222.781 365.382 220.832 363.806 215.668 357.881 216.863 347.088 217.253 339.722 217.735 335.09 219.469 331.241 221.8 327.267 222.143 326.656 222.486 326.044 222.839 325.415 224.893 322.16 227.163 320.333 230.582 318.624 232.381 317.634 233.819 316.446 235.396 315.133 240.441 311.264 251.923 305.928 258.2 309.067Z" fill="#B30509"/><path d="M285.205 318.326C292.168 324.564 296.822 333.911 297.376 343.229 297.533 355.866 294.549 365.282 285.825 374.717 279.137 381.111 269.803 385.649 260.475 385.442 259.556 385.426 258.638 385.41 257.692 385.394 257.002 385.374 256.311 385.354 255.6 385.333 255.6 385.047 255.6 384.761 255.6 384.467 256.238 384.319 256.876 384.172 257.533 384.02 265.128 382.134 268.806 379.864 272.92 373.2 275.472 368.174 275.531 361.884 274.165 356.486 271.048 349.133 263.499 346.342 256.727 343.056 252.743 340.946 249.501 338.49 247.8 334.2 247.033 329.039 246.905 324.317 250.021 319.954 260.601 308.036 273.123 308.909 285.205 318.326Z" fill="#050524"/><path d="M239.133 335.933C242.046 336.904 242.729 337.868 244.432 340.527 247.046 344.284 250.226 345.842 254.3 347.742 259.602 350.269 264.173 352.561 267.138 357.925 268.589 363.468 267.748 368.215 265.133 373.2 261.578 378.455 257.53 381.379 251.267 382.733 244.028 383.592 238.176 381.471 232.146 377.533 225.249 371.149 219.54 363.194 219.038 353.646 219.091 352.949 219.145 352.252 219.2 351.533 219.54 351.927 219.879 352.32 220.229 352.725 221.76 354.294 221.76 354.294 224.075 354.837 224.754 355.177 225.434 355.517 226.133 355.867 226.837 358.575 226.837 358.575 227 361.067 227.572 361.067 228.144 361.067 228.733 361.067 229.44 362.311 230.144 363.557 230.846 364.804 231.434 365.845 231.434 365.845 232.034 366.907 233.067 368.867 233.067 368.867 233.933 371.467 235.963 372.751 235.963 372.751 238.267 373.2 237.891 372.667 237.516 372.134 237.129 371.585 236.647 370.885 236.164 370.184 235.667 369.462 235.184 368.769 234.701 368.075 234.204 367.36 233.067 365.4 233.067 365.4 233.067 362.8 237.786 364.087 237.786 364.087 242.6 365.4 242.6 364.828 242.6 364.256 242.6 363.667 242.1 363.47 241.599 363.273 241.083 363.071 238.588 361.615 237.249 360.002 235.667 357.6 235.953 356.742 236.239 355.884 236.533 355 237.141 355.536 237.749 356.072 238.375 356.625 241.522 358.951 244.303 359.999 248.203 360.444 254.155 361.213 254.155 361.213 256.06 363.585 256.918 365.326 257.623 367.015 258.2 368.867 258.486 368.867 258.772 368.867 259.067 368.867 259.615 362.976 259.615 362.976 257.442 357.654 254.941 356.004 253.391 355.412 250.562 354.675 244.671 353.127 240.886 349.664 237.4 344.762 236.533 342.867 236.533 342.867 236.533 341.133 238.267 341.133 238.267 341.133 239.675 342.433 240.265 343.077 240.265 343.077 240.867 343.733 240.357 341.112 239.803 338.518 239.133 335.933Z" fill="#2B0404"/><path d="M261.667 308.2C261.953 308.772 262.239 309.344 262.533 309.933 264.281 310.916 264.281 310.916 266 311.667 265.246 311.888 265.246 311.888 264.477 312.114 258.339 314.018 253.132 316.402 249.462 321.901 247.4 326.823 247.884 332.279 249.858 337.125 254.278 341.545 259.706 344.109 265.35 346.658 269.738 348.787 272.277 351.651 274.667 355.867 276.538 361.48 276.203 367.905 273.841 373.332 271.346 377.734 268.066 381.5 263.4 383.6 260.529 384.196 260.529 384.196 258.2 384.467 257.914 383.037 257.628 381.607 257.333 380.133 257.741 379.818 258.149 379.503 258.569 379.179 262.95 375.641 265.995 372.019 266.867 366.267 267.208 361.657 266.507 359.014 264.267 355 264.267 354.428 264.267 353.856 264.267 353.267 263.685 353.046 263.103 352.824 262.503 352.596 244.945 345.333 244.945 345.333 241.733 337.667 240.006 331.83 239.072 325.987 241.733 320.333 244.766 314.943 248.165 312.176 253.867 309.933 254.653 309.576 255.44 309.218 256.25 308.85 258.2 308.2 258.2 308.2 261.667 308.2Z" fill="#F6F4F6"/><path d="M234.8 334.2C235.086 334.2 235.372 334.2 235.667 334.2 235.731 334.745 235.796 335.29 235.863 335.852 236.947 342.906 239.532 347.277 245.038 351.804 247.345 353.026 249.283 353.768 251.754 354.513 255.474 355.706 257.712 356.832 259.933 360.2 260.274 363.127 260.189 365.936 259.933 368.867 259.075 368.867 258.217 368.867 257.333 368.867 257.045 367.905 256.757 366.943 256.46 365.952 255.793 364.25 255.793 364.25 254.733 362.8 252.281 361.839 250.449 361.309 247.908 360.904 243.183 360.065 240.15 359.292 236.533 355.867 237.716 359.736 239.431 361.248 242.6 363.667 242.6 364.239 242.6 364.811 242.6 365.4 240.964 365.239 240.964 365.239 239.296 365.075 238.682 365.015 238.069 364.954 237.437 364.892 235.667 364.533 235.667 364.533 233.067 362.8 236.043 369.515 236.043 369.515 240.867 374.933 235.292 373.181 232.488 369.693 229.762 364.696 227.816 360.639 227.455 357.718 227.867 353.267 229.819 355.597 231.231 357.294 232.2 360.2 233.058 360.2 233.916 360.2 234.8 360.2 234.264 359.574 233.728 358.949 233.175 358.304 229.48 353.414 228.832 348.893 229.6 342.867 230.791 339.478 232.257 336.743 234.8 334.2Z" fill="#F59A17"/><path d="M239.133 335.933C242.046 336.904 242.729 337.868 244.432 340.527 247.046 344.284 250.226 345.842 254.3 347.742 258.97 349.968 262.549 351.964 266 355.867 265.142 356.296 265.142 356.296 264.267 356.733 264.696 359.307 264.696 359.307 265.133 361.933 264.275 361.933 263.417 361.933 262.533 361.933 262.533 361.361 262.533 360.789 262.533 360.2 261.961 360.2 261.389 360.2 260.8 360.2 260.85 360.848 260.901 361.496 260.952 362.164 261.071 364.748 261.114 367.163 260.8 369.733 258.633 372.062 258.633 372.062 256.467 373.2 256.181 371.198 255.895 369.196 255.6 367.133 254.742 367.133 253.884 367.133 253 367.133 252.714 368.563 252.428 369.993 252.133 371.467 251.561 371.467 250.989 371.467 250.4 371.467 249.828 370.609 249.256 369.751 248.667 368.867 247.844 369.045 247.022 369.224 246.175 369.408 245.281 369.516 244.387 369.623 243.467 369.733 242.895 369.161 242.323 368.589 241.733 368 239.94 367.443 239.94 367.443 238.267 367.133 238.553 369.135 238.839 371.137 239.133 373.2 234.22 368.545 234.22 368.545 233.067 365.4 233.067 364.542 233.067 363.684 233.067 362.8 236.213 363.658 239.359 364.516 242.6 365.4 242.6 364.828 242.6 364.256 242.6 363.667 242.1 363.47 241.599 363.273 241.083 363.071 238.588 361.615 237.249 360.002 235.667 357.6 235.953 356.742 236.239 355.884 236.533 355 237.141 355.536 237.749 356.072 238.375 356.625 241.522 358.951 244.303 359.999 248.203 360.444 254.155 361.213 254.155 361.213 256.06 363.585 256.918 365.326 257.623 367.015 258.2 368.867 258.486 368.867 258.772 368.867 259.067 368.867 259.615 362.976 259.615 362.976 257.442 357.654 254.941 356.004 253.391 355.412 250.562 354.675 244.671 353.127 240.886 349.664 237.4 344.762 236.533 342.867 236.533 342.867 236.533 341.133 238.267 341.133 238.267 341.133 239.675 342.433 240.068 342.862 240.462 343.291 240.867 343.733 240.357 341.112 239.803 338.518 239.133 335.933Z" fill="#4D0406"/><path d="M216.6 348.067C217.216 350.213 217.692 352.274 218.117 354.458 219.384 360.255 221.283 364.643 224.759 369.53 226.133 371.467 226.133 371.467 227.867 374.933 222.433 374.933 216.999 374.933 211.4 374.933 211.4 366.067 211.4 357.201 211.4 348.067 214 347.2 214 347.2 216.6 348.067Z" fill="#05030A"/><path d="M272.067 322.067C275.519 322.067 277.287 322.161 279.887 324.535 281.388 326.272 282.823 328.03 284.2 329.867 284.772 327.865 285.344 325.863 285.933 323.8 286.505 323.8 287.077 323.8 287.667 323.8 287.953 323.228 288.239 322.656 288.533 322.067 293.257 328.809 296.473 334.574 297.2 342.867 296.914 342.295 296.628 341.723 296.333 341.133 295.761 341.133 295.189 341.133 294.6 341.133 294.6 341.991 294.6 342.849 294.6 343.733 292.598 344.591 290.596 345.449 288.533 346.333 288.186 345.548 287.838 344.763 287.481 343.953 283.781 335.914 279.592 329.684 272.067 324.667 272.067 323.809 272.067 322.951 272.067 322.067Z" fill="#0E0C2B"/><path d="M121.267 316.867C121.553 317.439 121.839 318.011 122.133 318.6 123.577 318.586 123.577 318.586 125.049 318.572 128.612 318.541 132.175 318.521 135.738 318.505 137.282 318.496 138.825 318.484 140.369 318.469 142.585 318.448 144.8 318.438 147.016 318.431 148.055 318.417 148.055 318.417 149.115 318.404 150.811 318.403 152.507 318.494 154.2 318.6 154.772 319.172 155.344 319.744 155.933 320.333 155.415 320.329 154.896 320.324 154.362 320.32 144.719 320.246 135.205 320.263 125.6 321.2 131.606 321.629 131.606 321.629 137.733 322.067 137.447 323.211 137.161 324.355 136.867 325.533 132.577 325.533 128.287 325.533 123.867 325.533 124.153 326.105 124.439 326.677 124.733 327.267 132.972 328.969 141.593 329.888 149.867 328.133 150.439 328.419 151.011 328.705 151.6 329 151.6 329.572 151.6 330.144 151.6 330.733 150.456 331.019 149.312 331.305 148.133 331.6 148.133 332.172 148.133 332.744 148.133 333.333 139.267 333.333 130.401 333.333 121.267 333.333 121.267 327.899 121.267 322.465 121.267 316.867Z" fill="#18225C"/><path d="M258.2 309.067C257.625 309.267 257.049 309.467 256.457 309.673 251.771 311.403 248.419 312.891 245.2 316.867 244.557 317.653 243.913 318.44 243.25 319.25 240.195 324.923 240.72 330.606 241.733 336.8 241.161 336.8 240.589 336.8 240 336.8 237.569 331.938 237.854 327.437 238.971 322.283 239.906 319.723 240.814 318.029 242.6 316 242.314 315.428 242.028 314.856 241.733 314.267 240.875 314.267 240.017 314.267 239.133 314.267 238.847 315.125 238.561 315.983 238.267 316.867 236.837 317.153 235.407 317.439 233.933 317.733 233.933 318.305 233.933 318.877 233.933 319.467 233.361 319.467 232.789 319.467 232.2 319.467 232.2 320.039 232.2 320.611 232.2 321.2 230.704 322.854 229.056 324.277 227.379 325.75 224.83 328.626 224.332 330.499 223.533 334.2 222.961 334.2 222.389 334.2 221.8 334.2 219.678 349.416 219.678 349.416 221.8 364.533 218.573 362.187 218.071 358.725 217.467 355 216.479 345.161 216.692 335.976 221.8 327.267 222.143 326.656 222.486 326.044 222.839 325.415 224.893 322.16 227.163 320.333 230.582 318.624 232.381 317.634 233.819 316.446 235.396 315.133 240.441 311.264 251.923 305.928 258.2 309.067Z" fill="#CB8C8C"/><path d="M239.133 335.933C241.969 336.879 242.637 337.731 244.171 340.375 247.643 345.662 254.422 347.998 259.933 350.667 259.175 357.383 259.175 357.383 258.2 359.333 257.61 358.556 257.61 358.556 257.008 357.762 254.658 355.804 253.506 355.44 250.617 354.729 244.714 353.134 240.902 349.687 237.4 344.762 236.533 342.867 236.533 342.867 236.533 341.133 238.267 341.133 238.267 341.133 239.675 342.433 240.068 342.862 240.462 343.291 240.867 343.733 240.357 341.112 239.803 338.518 239.133 335.933Z" fill="#790604"/><path d="M127.184 353.118C128.158 353.154 128.158 353.154 129.151 353.191 131.219 353.272 133.284 353.377 135.35 353.483 136.754 353.542 138.158 353.6 139.561 353.656 142.998 353.796 146.432 353.959 149.867 354.133 150.354 355.812 150.354 355.812 150.733 357.6 149.867 358.467 149.867 358.467 147.143 358.565 145.937 358.565 144.731 358.56 143.526 358.551 142.892 358.55 142.259 358.549 141.606 358.547 139.575 358.543 137.544 358.532 135.512 358.521 134.139 358.516 132.765 358.512 131.391 358.509 128.016 358.499 124.641 358.484 121.267 358.467 121.267 359.611 121.267 360.755 121.267 361.933 120.695 361.933 120.123 361.933 119.533 361.933 119.819 364.507 120.105 367.081 120.4 369.733 119.256 369.447 118.112 369.161 116.933 368.867 116.839 366.917 116.772 364.967 116.717 363.017 116.676 361.931 116.636 360.845 116.595 359.726 116.933 356.733 116.933 356.733 118.264 354.822 121.2 352.684 123.71 352.913 127.184 353.118ZM118.667 355.867C119.533 357.6 119.533 357.6 119.533 357.6Z" fill="#E7E8F7"/><path d="M118.667 328.133C119.967 329.271 119.967 329.271 121.267 330.733 121.267 331.591 121.267 332.449 121.267 333.333 130.705 333.333 140.143 333.333 149.867 333.333 150.296 335.049 150.296 335.049 150.733 336.8 149.867 337.667 149.867 337.667 147.143 337.765 145.937 337.765 144.731 337.76 143.526 337.751 142.892 337.75 142.259 337.749 141.606 337.748 139.575 337.743 137.544 337.732 135.512 337.721 134.139 337.716 132.765 337.713 131.391 337.709 128.016 337.699 124.641 337.684 121.267 337.667 120.981 338.811 120.695 339.955 120.4 341.133 120.114 340.561 119.828 339.989 119.533 339.4 118.675 339.114 117.817 338.828 116.933 338.533 117.076 337.872 117.219 337.211 117.367 336.529 117.879 334.169 117.879 334.169 117.8 331.6 118.065 330.439 118.35 329.282 118.667 328.133Z" fill="#F8FDFE"/><path d="M121.267 358.467C121.553 358.467 121.839 358.467 122.133 358.467 122.186 359.135 122.238 359.803 122.292 360.491 122.365 361.36 122.438 362.229 122.513 363.125 122.583 363.99 122.653 364.854 122.726 365.745 122.87 367.982 122.87 367.982 123.867 369.733 127.728 369.304 127.728 369.304 131.667 368.867 131.381 370.011 131.095 371.155 130.8 372.333 131.64 372.19 132.48 372.047 133.346 371.9 138.006 371.236 142.767 370.833 147.267 372.333 147.553 371.761 147.839 371.189 148.133 370.6 152.709 370.886 157.285 371.172 162 371.467 162 372.039 162 372.611 162 373.2 157.408 375.088 153.392 375.161 148.519 375.103 147.738 375.1 146.957 375.098 146.152 375.095 143.67 375.086 141.189 375.064 138.708 375.042 137.02 375.033 135.332 375.025 133.644 375.018 129.518 375 125.393 374.966 121.267 374.933 121.267 369.499 121.267 364.065 121.267 358.467Z" fill="#08144D"/><path d="M244.333 351.533C252.849 354.149 252.849 354.149 256.467 356.733 257.128 357.18 257.789 357.627 258.471 358.087 260.784 361.428 260.204 364.926 259.933 368.867 259.075 368.867 258.217 368.867 257.333 368.867 257.046 367.905 256.759 366.943 256.463 365.952 255.797 364.249 255.797 364.249 254.733 362.8 252.264 361.841 250.41 361.309 247.854 360.904 243.44 360.129 240.314 359.542 237.4 355.867 238.258 355.581 239.116 355.295 240 355 240.572 354.428 241.144 353.856 241.733 353.267 242.591 353.267 243.449 353.267 244.333 353.267 244.333 352.695 244.333 352.123 244.333 351.533Z" fill="#DA311C"/><path d="M241.733 313.4C242.305 313.686 242.877 313.972 243.467 314.267 242.536 316.793 241.926 318.408 240 320.333 239.477 322.181 239.477 322.181 239.133 324.233 238.459 327.941 238.459 327.941 236.533 329.867 235.961 329.295 235.389 328.723 234.8 328.133 232.661 329.131 231.292 329.908 229.6 331.6 227.758 331.275 227.758 331.275 226.133 330.733 226.593 326.827 228.085 324.303 230.467 321.2 231.039 321.2 231.611 321.2 232.2 321.2 232.2 320.628 232.2 320.056 232.2 319.467 232.772 319.467 233.344 319.467 233.933 319.467 233.933 318.895 233.933 318.323 233.933 317.733 234.63 317.483 235.328 317.233 236.046 316.975 238.382 316.232 238.382 316.232 239.133 314.267 239.991 313.981 240.849 313.695 241.733 313.4Z" fill="#CF0408"/><path d="M227.867 339.4C229.011 339.686 230.155 339.972 231.333 340.267 231.047 341.125 230.761 341.983 230.467 342.867 229.682 350.109 231.346 354.771 235.45 360.633 235.807 361.062 236.165 361.491 236.533 361.933 232.307 360.759 230.912 358.712 228.733 355 228.733 357.002 228.733 359.004 228.733 361.067 228.161 361.067 227.589 361.067 227 361.067 226.428 359.351 225.856 357.635 225.267 355.867 223.551 355.581 221.835 355.295 220.067 355 218.829 347.571 218.829 347.571 220.933 344.6 221.505 344.6 222.077 344.6 222.667 344.6 222.667 345.744 222.667 346.888 222.667 348.067 223.239 348.067 223.811 348.067 224.4 348.067 224.686 347.495 224.972 346.923 225.267 346.333 226.125 346.619 226.983 346.905 227.867 347.2 227.867 344.626 227.867 342.052 227.867 339.4Z" fill="#680505"/><path d="M146.268 347.982C148.045 348.01 149.823 348.038 151.6 348.066 151.6 350.068 151.6 352.07 151.6 354.133 148.749 354.133 145.909 354.04 143.059 353.943 142.199 353.915 142.199 353.915 141.321 353.885 139.493 353.824 137.665 353.762 135.837 353.7 134.597 353.658 133.356 353.616 132.115 353.574 129.077 353.472 126.038 353.369 123 353.266 123 351.836 123 350.406 123 348.933 123.938 348.94 123.938 348.94 124.896 348.947 127.712 348.965 130.529 348.976 133.346 348.987 134.823 348.998 134.823 348.998 136.33 349.009 137.266 349.012 138.201 349.015 139.165 349.018 140.032 349.022 140.899 349.027 141.792 349.031 144.035 348.922 144.161 348.093 146.268 347.982Z" fill="#061759"/><path d="M219.2 351.533C219.54 351.927 219.879 352.32 220.229 352.725 221.76 354.294 221.76 354.294 224.075 354.837 224.754 355.177 225.434 355.517 226.133 355.867 226.837 358.575 226.837 358.575 227 361.067 227.572 361.067 228.144 361.067 228.733 361.067 229.44 362.311 230.144 363.557 230.846 364.804 231.238 365.498 231.63 366.192 232.034 366.907 233.067 368.867 233.067 368.867 233.933 371.467 234.791 371.753 235.649 372.039 236.533 372.333 235.675 372.619 234.817 372.905 233.933 373.2 233.075 372.628 232.217 372.056 231.333 371.467 231.333 370.609 231.333 369.751 231.333 368.867 230.708 369.099 230.082 369.331 229.438 369.571 227 369.733 227 369.733 224.779 368.163 221.233 364.145 219.348 358.872 218.983 353.592 219.055 352.912 219.126 352.233 219.2 351.533Z" fill="#570905"/><path d="M277.267 313.4C281.366 315.57 284.623 317.603 287.667 321.2 287.667 322.058 287.667 322.916 287.667 323.8 287.095 324.372 286.523 324.944 285.933 325.533 285.589 327.256 285.294 328.991 285.067 330.733 284.441 330.09 283.815 329.446 283.171 328.783 280.014 325.697 276.992 323.004 272.933 321.2 273.791 320.914 274.649 320.628 275.533 320.333 275.856 319.187 276.145 318.03 276.4 316.867 276.972 316.581 277.544 316.295 278.133 316 277.847 315.142 277.561 314.284 277.267 313.4Z" fill="#090728"/><path d="M161.133 315.133C161.187 315.956 161.241 316.778 161.296 317.625 161.528 318.519 161.761 319.413 162 320.333 164.134 321.593 164.134 321.593 166.333 322.067 165.475 322.925 164.617 323.783 163.733 324.667 163.137 324.134 163.137 324.134 162.528 323.59 161.73 322.89 161.73 322.89 160.917 322.175 160.394 321.712 159.871 321.25 159.332 320.773 155.291 317.602 151.696 317.446 146.657 317.374 145.931 317.358 145.205 317.341 144.457 317.324 142.144 317.272 139.83 317.232 137.517 317.192 135.946 317.159 134.375 317.125 132.804 317.09 128.958 317.007 125.113 316.934 121.267 316.867 121.267 316.581 121.267 316.295 121.267 316 122.383 315.947 123.499 315.895 124.649 315.841 126.103 315.768 127.558 315.694 129.012 315.621 130.118 315.57 130.118 315.57 131.245 315.518 131.946 315.481 132.647 315.445 133.369 315.408 134.019 315.376 134.668 315.344 135.336 315.311 136.888 315.291 136.888 315.291 137.733 314.267 139.872 314.009 141.978 313.813 144.125 313.671 145.059 313.609 145.059 313.609 146.012 313.546 151.241 313.275 156.052 313.831 161.133 315.133Z" fill="#E9EFF7"/><path d="M273.8 371.467C276.4 372.333 276.4 372.333 277.267 373.958 277.553 374.566 277.839 375.174 278.133 375.8 279.469 377.281 279.469 377.281 280.733 378.4 273.447 384.372 264.788 386.078 255.6 385.333 255.6 385.047 255.6 384.761 255.6 384.467 256.557 384.246 256.557 384.246 257.533 384.02 264.299 382.339 268.092 380.704 271.904 374.717 272.544 373.638 273.179 372.556 273.8 371.467Z" fill="#0C0C13"/><path d="M226.133 333.333C226.705 333.619 227.277 333.905 227.867 334.2 227.867 335.058 227.867 335.916 227.867 336.8 229.297 336.514 230.727 336.228 232.2 335.933 232.2 335.361 232.2 334.789 232.2 334.2 232.772 334.2 233.344 334.2 233.933 334.2 233.337 336.312 233.337 336.312 232.2 338.533 229.925 339.238 229.925 339.238 227.867 339.4 227.867 341.974 227.867 344.548 227.867 347.2 226.151 347.486 224.435 347.772 222.667 348.067 222.095 347.209 221.523 346.351 220.933 345.467 220.647 345.181 220.361 344.895 220.067 344.6 219.71 342.041 219.585 340.18 220.974 337.931 222.533 336.033 223.917 334.441 226.133 333.333Z" fill="#940506"/><path d="M122.133 328.133C123.163 328.18 123.163 328.18 124.213 328.227 127.329 328.363 130.446 328.492 133.562 328.621 135.182 328.694 135.182 328.694 136.835 328.768 138.397 328.831 138.397 328.831 139.991 328.895 141.428 328.956 141.428 328.956 142.893 329.019 145.511 329.083 145.511 329.083 147.938 328.519 149.867 328.133 149.867 328.133 151.6 329 151.6 329.572 151.6 330.144 151.6 330.733 148.443 332.725 145.786 332.667 142.107 332.636 141.535 332.633 140.963 332.631 140.373 332.629 138.554 332.619 136.736 332.597 134.917 332.575 133.68 332.566 132.443 332.558 131.206 332.551 128.182 332.532 125.158 332.502 122.133 332.467 122.133 331.037 122.133 329.607 122.133 328.133Z" fill="#04114A"/><path d="M254.733 307.333C255.305 307.905 255.877 308.477 256.467 309.067 255.889 309.152 255.311 309.236 254.716 309.324 245.062 310.89 237.854 313.344 230.379 319.805 228.733 321.2 228.733 321.2 227.867 321.2 227.867 319.77 227.867 318.34 227.867 316.867 221.575 316.867 215.283 316.867 208.8 316.867 208.8 316.581 208.8 316.295 208.8 316 209.928 315.958 211.057 315.915 212.219 315.871 213.716 315.806 215.212 315.741 216.708 315.675 217.821 315.635 217.821 315.635 218.956 315.594 223.102 315.402 226.561 314.932 230.467 313.4 233.622 312.69 236.809 312.186 240 311.667 240 311.095 240 310.523 240 309.933 250.509 306.792 250.509 306.792 254.733 307.333Z" fill="#E8E8E8"/><path d="M227.867 353.267C229.819 355.597 231.231 357.294 232.2 360.2 233.946 360.835 233.946 360.835 235.667 361.067 235.953 360.209 236.239 359.351 236.533 358.467 237.549 359.291 238.56 360.123 239.567 360.958 240.13 361.421 240.693 361.883 241.273 362.36 241.711 362.791 242.149 363.222 242.6 363.667 242.6 364.239 242.6 364.811 242.6 365.4 241.51 365.293 240.419 365.185 239.296 365.075 238.682 365.015 238.069 364.954 237.437 364.892 235.667 364.533 235.667 364.533 233.067 362.8 236.043 369.515 236.043 369.515 240.867 374.933 235.292 373.181 232.488 369.693 229.762 364.696 227.816 360.639 227.455 357.718 227.867 353.267Z" fill="#E68536"/><path d="M234.8 334.2C235.086 334.2 235.372 334.2 235.667 334.2 236.884 339.504 237.602 344.355 237.4 349.8 236.828 350.086 236.256 350.372 235.667 350.667 235.381 351.239 235.095 351.811 234.8 352.4 233.656 352.4 232.512 352.4 231.333 352.4 230.056 347.844 229.261 342.727 231.404 338.354 232.579 336.692 232.579 336.692 234.8 334.2Z" fill="#FABB15"/><path d="M272.067 322.067C275.32 322.067 277.224 322.177 279.765 324.291 285.119 330.213 287.965 335.772 288.533 343.733 286.742 341.4 285.122 339.015 283.55 336.529 280.407 331.779 276.815 327.832 272.067 324.667 272.067 323.809 272.067 322.951 272.067 322.067Z" fill="#E5E5EF"/><path d="M260.8 312.533C261.372 314.249 261.944 315.965 262.533 317.733 259.731 319.601 258.796 319.467 255.6 319.467 255.466 320.915 255.466 320.915 255.329 322.392 255.133 323.428 254.936 324.465 254.733 325.533 252.133 327.267 252.133 327.267 249.533 327.267 249.533 326.695 249.533 326.123 249.533 325.533 248.961 325.533 248.389 325.533 247.8 325.533 249.364 320.374 252.768 316.518 257.117 313.454 259.067 312.533 259.067 312.533 260.8 312.533Z" fill="#080B33"/><path d="M178.467 316.867C184.187 316.867 189.907 316.867 195.8 316.867 195.8 324.589 195.8 332.311 195.8 340.267 194.942 340.553 194.084 340.839 193.2 341.133 193.092 335.392 193.092 335.392 194.067 332.467 194.264 330.241 194.427 328.033 194.554 325.804 194.679 323.713 194.804 321.621 194.933 319.467 189.785 319.467 184.637 319.467 179.333 319.467 179.047 320.897 178.761 322.327 178.467 323.8 177.895 322.942 177.323 322.084 176.733 321.2 177.305 319.77 177.877 318.34 178.467 316.867Z" fill="#02051A"/><path d="M121.267 337.667C130.133 337.953 138.999 338.239 148.133 338.533 148.133 339.105 148.133 339.677 148.133 340.267 144.692 341.402 141.205 341.261 137.625 341.242 136.994 341.245 136.363 341.248 135.712 341.252 131.02 341.243 131.02 341.243 129.067 340.267 127.614 340.509 126.167 340.794 124.733 341.133 124.447 343.421 124.161 345.709 123.867 348.067 123.581 348.067 123.295 348.067 123 348.067 122.714 350.069 122.428 352.071 122.133 354.133 121.847 354.133 121.561 354.133 121.267 354.133 121.267 348.699 121.267 343.265 121.267 337.667Z" fill="#0B145D"/><path d="M124.733 355C133.313 355 141.893 355 150.733 355 150.733 355.858 150.733 356.716 150.733 357.6 141.867 357.6 133.001 357.6 123.867 357.6 124.153 356.742 124.439 355.884 124.733 355Z" fill="#F9F9FC"/><path d="M245.2 344.6C248.869 345.138 251.72 346.425 255.004 348.121 255.93 348.596 256.856 349.07 257.811 349.56 258.511 349.925 259.212 350.29 259.933 350.667 259.361 352.097 258.789 353.527 258.2 355 255.251 354.082 252.988 353.259 250.4 351.533 248.965 351.2 247.521 350.902 246.067 350.667 246.067 349.809 246.067 348.951 246.067 348.067 245.801 346.906 245.517 345.748 245.2 344.6Z" fill="#6F0A0C"/><path d="M233.933 374.067C236.078 374.496 236.078 374.496 238.267 374.933 238.553 375.791 238.839 376.649 239.133 377.533 244.71 377.104 244.71 377.104 250.4 376.667 247.8 378.4 247.8 378.4 246.067 379.267 248.641 379.267 251.215 379.267 253.867 379.267 253.867 380.125 253.867 380.983 253.867 381.867 249.193 383.424 244.496 383.398 239.946 381.433 239.106 381.004 238.266 380.575 237.4 380.133 237.4 378.989 237.4 377.845 237.4 376.667 236.828 376.667 236.256 376.667 235.667 376.667 235.667 376.095 235.667 375.523 235.667 374.933 235.095 374.647 234.523 374.361 233.933 374.067Z" fill="#140303"/><path d="M259.067 351.533C262.356 352.003 263.809 353.441 266 355.867 265.142 356.296 265.142 356.296 264.267 356.733 264.553 358.449 264.839 360.165 265.133 361.933 264.275 361.933 263.417 361.933 262.533 361.933 262.533 361.361 262.533 360.789 262.533 360.2 261.961 360.2 261.389 360.2 260.8 360.2 260.85 360.848 260.901 361.496 260.952 362.164 261.071 364.748 261.114 367.163 260.8 369.733 258.633 372.062 258.633 372.062 256.467 373.2 256.753 371.77 257.039 370.34 257.333 368.867 257.905 368.867 258.477 368.867 259.067 368.867 259.145 364.636 259.181 360.496 258.579 356.3 258.2 353.267 258.2 353.267 259.067 351.533Z" fill="#670808"/><path d="M120.4 332.467C130.124 332.753 139.848 333.039 149.867 333.333 150.296 335.049 150.296 335.049 150.733 336.8 149.867 337.667 149.867 337.667 147.143 337.765 145.937 337.765 144.731 337.76 143.526 337.751 142.892 337.75 142.259 337.749 141.606 337.748 139.575 337.743 137.544 337.732 135.512 337.721 134.139 337.716 132.765 337.713 131.391 337.709 128.016 337.699 124.641 337.684 121.267 337.667 121.267 337.381 121.267 337.095 121.267 336.8 129.275 336.8 137.283 336.8 145.533 336.8 145.247 336.228 144.961 335.656 144.667 335.067 144.024 335.071 143.381 335.076 142.719 335.08 139.811 335.098 136.904 335.11 133.996 335.121 132.984 335.128 131.973 335.135 130.93 335.143 129.477 335.147 129.477 335.147 127.993 335.151 126.652 335.158 126.652 335.158 125.284 335.165 123 335.067 123 335.067 120.4 334.2 120.4 333.628 120.4 333.056 120.4 332.467Z" fill="#D2D9ED"/><path d="M264.267 356.733C265.125 357.019 265.983 357.305 266.867 357.6 268.052 360.366 267.717 362.566 266.867 365.4 265.621 367.404 265.621 367.404 264.267 368.867 263.695 368.867 263.123 368.867 262.533 368.867 262.194 369.707 261.854 370.547 261.504 371.413 259.933 374.067 259.933 374.067 257.604 374.825 256.943 374.861 256.281 374.897 255.6 374.933 256.467 372.333 256.467 372.333 258.214 371.179 260.157 369.841 260.157 369.841 260.461 367.394 260.502 366.539 260.542 365.685 260.583 364.804 260.632 363.943 260.682 363.081 260.732 362.194 260.755 361.536 260.777 360.878 260.8 360.2 261.372 360.2 261.944 360.2 262.533 360.2 263.105 360.772 263.677 361.344 264.267 361.933 264.106 361.397 263.945 360.861 263.779 360.308 263.4 358.467 263.4 358.467 264.267 356.733Z" fill="#430506"/><path d="M247.8 362.8C253.239 362.382 253.239 362.382 255.979 364.208 257.677 366.789 257.609 368.436 257.333 371.467 256.761 370.895 256.189 370.323 255.6 369.733 255.6 368.875 255.6 368.017 255.6 367.133 254.742 367.133 253.884 367.133 253 367.133 252.714 368.563 252.428 369.993 252.133 371.467 251.561 371.467 250.989 371.467 250.4 371.467 249.828 370.609 249.256 369.751 248.667 368.867 246.951 369.153 245.235 369.439 243.467 369.733 243.181 369.161 242.895 368.589 242.6 368 243.297 367.625 243.994 367.249 244.713 366.862 247.175 365.569 247.175 365.569 247.8 362.8Z" fill="#4B0503"/><path d="M179.333 348.067C179.619 348.067 179.905 348.067 180.2 348.067 180.2 356.933 180.2 365.799 180.2 374.933 179.914 374.933 179.628 374.933 179.333 374.933 179.047 370.071 178.761 365.209 178.467 360.2 177.895 360.772 177.323 361.344 176.733 361.933 176.733 361.361 176.733 360.789 176.733 360.2 175.303 360.772 173.873 361.344 172.4 361.933 174.688 357.357 176.976 352.781 179.333 348.067Z" fill="#C8CAD7"/><path d="M262.533 345.467C263.657 345.981 264.775 346.507 265.892 347.038 266.515 347.329 267.138 347.621 267.781 347.921 269.467 348.933 269.467 348.933 271.2 351.533 270.342 351.962 270.342 351.962 269.467 352.4 268.924 355.33 268.6 358.087 268.6 361.067 265.966 359.75 265.442 357.617 264.267 355 264.267 354.428 264.267 353.856 264.267 353.267 263.409 352.981 262.551 352.695 261.667 352.4 261.953 350.112 262.239 347.824 262.533 345.467Z" fill="#EFE4E0"/><path d="M122.133 316.867C126.668 316.845 131.203 316.83 135.738 316.819 137.282 316.815 138.825 316.809 140.369 316.801 142.585 316.791 144.8 316.786 147.016 316.782 147.709 316.778 148.401 316.773 149.115 316.768 154.003 316.768 154.003 316.768 155.933 317.733 155.933 318.305 155.933 318.877 155.933 319.467 139.202 319.038 139.202 319.038 122.133 318.6 122.133 318.028 122.133 317.456 122.133 316.867Z" fill="#0C1343"/><path d="M262.533 374.933C261.235 378.973 258.3 380.017 254.733 381.867 254.447 381.009 254.161 380.151 253.867 379.267 249.863 379.553 245.859 379.839 241.733 380.133 244.744 378.628 246.133 378.139 249.317 377.858 250.356 377.761 250.356 377.761 251.416 377.662 251.938 377.62 252.461 377.577 253 377.533 253 376.961 253 376.389 253 375.8 256.237 375.302 259.251 374.933 262.533 374.933Z" fill="#1F0909"/><path d="M244.333 311.667C245.191 311.953 246.049 312.239 246.933 312.533 246.018 315.127 245.076 317.033 243.412 319.25 240.092 324.82 240.718 330.596 241.733 336.8 241.161 336.8 240.589 336.8 240 336.8 237.569 331.938 237.854 327.437 238.971 322.283 239.921 319.684 240.908 318.133 242.6 316 243.149 314.169 243.149 314.169 243.467 312.533 243.753 312.247 244.039 311.961 244.333 311.667Z" fill="#AF1F1E"/><path d="M266 369.733C266.572 370.591 267.144 371.449 267.733 372.333 267.083 374.392 267.083 374.392 266 376.667 264.968 378.919 264.968 378.919 264.267 381 264.553 381.572 264.839 382.144 265.133 382.733 262.845 383.305 260.557 383.877 258.2 384.467 257.914 383.037 257.628 381.607 257.333 380.133 257.741 379.818 258.149 379.503 258.569 379.179 262.076 376.347 264.269 374.01 266 369.733Z" fill="#F0EBE9"/><path d="M226.133 368C226.419 368.572 226.705 369.144 227 369.733 228.43 369.447 229.86 369.161 231.333 368.867 231.619 369.725 231.905 370.583 232.2 371.467 233.817 372.349 233.817 372.349 235.721 372.929 236.357 373.147 236.992 373.365 237.647 373.589 238.138 373.747 238.628 373.904 239.133 374.067 237.989 374.353 236.845 374.639 235.667 374.933 235.667 375.505 235.667 376.077 235.667 376.667 236.239 376.667 236.811 376.667 237.4 376.667 237.114 377.811 236.828 378.955 236.533 380.133 231.727 376.877 228.403 373.767 225.267 368.867 225.553 368.581 225.839 368.295 226.133 368Z" fill="#270B0B"/><path d="M227.867 361.067C233.933 368.953 233.933 368.953 233.933 371.467 234.791 371.753 235.649 372.039 236.533 372.333 235.675 372.619 234.817 372.905 233.933 373.2 233.075 372.628 232.217 372.056 231.333 371.467 231.333 370.609 231.333 369.751 231.333 368.867 230.672 369.045 230.011 369.224 229.329 369.408 227 369.733 227 369.733 224.4 368 224.021 365.888 224.021 365.888 224.4 363.667 226.133 362.096 226.133 362.096 227.867 361.067Z" fill="#3F050A"/><path d="M123.867 320.333C124.725 320.762 124.725 320.762 125.6 321.2 127.655 321.4 129.714 321.556 131.775 321.688 132.885 321.76 133.996 321.833 135.14 321.908 136.424 321.986 136.424 321.986 137.733 322.067 137.447 323.211 137.161 324.355 136.867 325.533 132.577 325.533 128.287 325.533 123.867 325.533 123.867 323.817 123.867 322.101 123.867 320.333Z" fill="#04166D"/><path d="M235.667 355C236.417 355.536 237.168 356.073 237.942 356.625 241.34 358.765 244.286 359.928 248.26 360.535 250.49 360.884 252.588 361.227 254.733 361.933 256.142 364.208 256.142 364.208 256.467 366.267 256.144 365.85 255.821 365.433 255.488 365.004 253.258 363.164 251.581 363.23 248.721 363.071 247.819 363.014 246.918 362.957 245.989 362.898 243.994 362.821 241.997 362.8 240 362.8 235.667 358.368 235.667 358.368 235.667 355Z" fill="#6F0702"/><path d="M244.333 351.533C247.336 352.82 247.336 352.82 250.4 354.133 248.667 355.867 248.667 355.867 246.067 357.6 246.639 358.172 247.211 358.744 247.8 359.333 244.8 360.304 243.636 360.268 240.65 359.062 238.267 357.6 238.267 357.6 237.4 355.867 238.258 355.581 239.116 355.295 240 355 240.572 354.428 241.144 353.856 241.733 353.267 242.591 353.267 243.449 353.267 244.333 353.267 244.333 352.695 244.333 352.123 244.333 351.533Z" fill="#FB5909"/><path d="M214 329C216.002 329.572 218.004 330.144 220.067 330.733 218.923 335.309 217.779 339.885 216.6 344.6 216.314 343.742 216.028 342.884 215.733 342 215.161 342 214.589 342 214 342 213.891 336.355 213.891 336.355 214.488 334.038 214.954 332.107 214.6 330.868 214 329Z" fill="#09080F"/><path d="M227.867 339.4C229.583 339.829 229.583 339.829 231.333 340.267 231.047 341.125 230.761 341.983 230.467 342.867 229.682 350.109 231.346 354.771 235.45 360.633 235.807 361.062 236.165 361.491 236.533 361.933 232.307 360.759 230.912 358.712 228.733 355 228.161 355.858 227.589 356.716 227 357.6 226.977 356.174 226.96 354.747 226.946 353.321 226.936 352.527 226.926 351.732 226.915 350.914 227 348.933 227 348.933 227.867 348.067 227.929 346.605 227.939 345.142 227.921 343.679 227.913 342.883 227.905 342.086 227.897 341.265 227.887 340.65 227.877 340.034 227.867 339.4Z" fill="#751703"/><path d="M239.133 335.933C242.432 337.185 243.697 338.836 245.2 342 244.914 342.572 244.628 343.144 244.333 343.733 244.026 344.884 243.739 346.041 243.467 347.2 243.178 348.355 242.889 349.511 242.6 350.667 239.87 347.578 237.821 345.114 236.533 341.133 238.267 341.133 238.267 341.133 239.675 342.433 240.068 342.862 240.462 343.291 240.867 343.733 240.357 341.112 239.803 338.518 239.133 335.933Z" fill="#891104"/><path d="M222.667 316.867C224.383 316.867 226.099 316.867 227.867 316.867 227.867 318.297 227.867 319.727 227.867 321.2 227.295 321.2 226.723 321.2 226.133 321.2 225.883 321.718 225.633 322.237 225.375 322.771 224.4 324.667 224.4 324.667 222.667 327.267 222.095 327.267 221.523 327.267 220.933 327.267 220.779 323.325 220.935 320.438 222.667 316.867Z" fill="#0E0E0D"/><path d="M234.8 331.6C236.087 332.458 236.087 332.458 237.4 333.333 238.258 333.333 239.116 333.333 240 333.333 240.125 334.281 240.25 335.228 240.379 336.204 240.765 339.34 240.765 339.34 241.733 342 241.447 342.572 241.161 343.144 240.867 343.733 240.009 343.447 239.151 343.161 238.267 342.867 238.267 342.295 238.267 341.723 238.267 341.133 237.695 341.133 237.123 341.133 236.533 341.133 236.242 339.87 235.954 338.606 235.667 337.342 235.506 336.638 235.345 335.934 235.179 335.209 234.8 333.333 234.8 333.333 234.8 331.6Z" fill="#940D01"/><path d="M131.342 328.513C131.954 328.558 132.566 328.603 133.197 328.65 134.709 328.762 136.221 328.88 137.733 329 137.733 329.858 137.733 330.716 137.733 331.6 132.871 331.6 128.009 331.6 123 331.6 123 330.742 123 329.884 123 329 125.685 327.658 128.427 328.279 131.342 328.513Z" fill="#07156C"/><path d="M269.467 378.4C269.753 378.972 270.039 379.544 270.333 380.133 270.905 380.133 271.477 380.133 272.067 380.133 272.353 380.991 272.639 381.849 272.933 382.733 267.039 385.454 262.043 385.623 255.6 385.333 255.6 385.047 255.6 384.761 255.6 384.467 256.557 384.245 256.557 384.245 257.533 384.02 264.088 382.393 264.088 382.393 269.467 378.4Z" fill="#262628"/><path d="M121.267 358.467C121.553 358.467 121.839 358.467 122.133 358.467 122.186 359.135 122.238 359.803 122.292 360.491 122.365 361.36 122.438 362.229 122.513 363.125 122.583 363.99 122.653 364.854 122.726 365.745 122.87 367.982 122.87 367.982 123.867 369.733 127.728 369.304 127.728 369.304 131.667 368.867 131.381 370.011 131.095 371.155 130.8 372.333 125.468 372.418 125.468 372.418 123.867 372.333 123.581 372.047 123.295 371.761 123 371.467 122.428 372.611 121.856 373.755 121.267 374.933 121.267 369.499 121.267 364.065 121.267 358.467Z" fill="#202C6E"/><path d="M294.6 341.133C295.172 341.133 295.744 341.133 296.333 341.133 297.376 343.218 297.287 344.557 297.254 346.875 297.246 347.583 297.239 348.292 297.23 349.021 297.22 349.564 297.21 350.107 297.2 350.667 294.6 349.8 294.6 349.8 292 348.067 292 347.495 292 346.923 292 346.333 290.856 346.619 289.712 346.905 288.533 347.2 289.105 346.056 289.677 344.912 290.267 343.733 291.711 343.733 293.156 343.733 294.6 343.733 294.6 342.875 294.6 342.017 294.6 341.133Z" fill="#030511"/><path d="M254.733 307.333C255.305 307.905 255.877 308.477 256.467 309.067 255.889 309.152 255.311 309.236 254.716 309.324 248.623 310.313 243.14 312.027 237.4 314.267 236.542 314.553 235.684 314.839 234.8 315.133 234.8 314.275 234.8 313.417 234.8 312.533 236.516 312.247 238.232 311.961 240 311.667 240 311.095 240 310.523 240 309.933 250.509 306.792 250.509 306.792 254.733 307.333Z" fill="#F8D5D4"/><path d="M258.2 309.067C257.615 309.297 257.029 309.527 256.426 309.764 255.653 310.07 254.88 310.376 254.083 310.692 253.319 310.993 252.555 311.295 251.768 311.606 249.816 312.416 247.942 313.294 246.067 314.267 246.067 313.695 246.067 313.123 246.067 312.533 245.128 312.962 245.128 312.962 244.171 313.4 241.719 314.272 239.975 314.414 237.4 314.267 241.953 310.528 252.503 306.218 258.2 309.067Z" fill="#A53735"/><path d="M194.067 368.867C195.497 369.153 196.927 369.439 198.4 369.733 197.961 371.613 197.533 373.2 196.667 374.933 194.093 374.933 191.519 374.933 188.867 374.933 189.439 374.075 190.011 373.217 190.6 372.333 191.458 372.333 192.316 372.333 193.2 372.333 193.486 371.189 193.772 370.045 194.067 368.867Z" fill="#050617"/><path d="M201.867 355C203.708 355.325 203.708 355.325 205.333 355.867 204.922 360.19 203.626 362.82 201 366.267 200.714 366.267 200.428 366.267 200.133 366.267 200.087 364.714 200.053 363.161 200.025 361.608 200.005 360.744 199.985 359.879 199.964 358.988 200.133 356.733 200.133 356.733 201.867 355Z" fill="#0C0E18"/><path d="M227.867 341.133C228.153 341.133 228.439 341.133 228.733 341.133 228.733 343.421 228.733 345.709 228.733 348.067 227.875 348.067 227.017 348.067 226.133 348.067 225.561 349.211 224.989 350.355 224.4 351.533 222.97 351.247 221.54 350.961 220.067 350.667 220.067 348.665 220.067 346.663 220.067 344.6 220.925 344.6 221.783 344.6 222.667 344.6 222.667 345.744 222.667 346.888 222.667 348.067 223.239 348.067 223.811 348.067 224.4 348.067 224.686 347.495 224.972 346.923 225.267 346.333 226.125 346.619 226.983 346.905 227.867 347.2 227.867 345.198 227.867 343.196 227.867 341.133Z" fill="#7D0207"/><path d="M118.667 328.133C119.957 329.125 119.957 329.125 121.267 330.733 121.521 333.073 121.521 333.073 121.429 335.663 121.406 336.524 121.382 337.385 121.358 338.273 121.328 338.931 121.298 339.589 121.267 340.267 120.409 340.696 120.409 340.696 119.533 341.133 119.533 340.561 119.533 339.989 119.533 339.4 118.675 339.114 117.817 338.828 116.933 338.533 117.076 337.872 117.219 337.211 117.367 336.529 117.879 334.169 117.879 334.169 117.8 331.6 118.065 330.439 118.35 329.282 118.667 328.133Z" fill="#FAF9F3"/><path d="M254.733 356.733C255.019 357.877 255.305 359.021 255.6 360.2 254.867 360.075 254.134 359.95 253.379 359.821 250.369 359.328 247.354 358.89 244.333 358.467 244.333 357.609 244.333 356.751 244.333 355.867 248.248 354.68 250.909 355.459 254.733 356.733Z" fill="#F53305"/><path d="M121.267 337.667C124.413 337.953 127.559 338.239 130.8 338.533 128.755 340.578 127.525 340.693 124.733 341.133 124.447 343.421 124.161 345.709 123.867 348.067 123.581 348.067 123.295 348.067 123 348.067 122.714 350.069 122.428 352.071 122.133 354.133 121.847 354.133 121.561 354.133 121.267 354.133 121.267 348.699 121.267 343.265 121.267 337.667Z" fill="#2A316D"/><path d="M242.6 319.467C242.886 319.467 243.172 319.467 243.467 319.467 243.181 325.473 242.895 331.479 242.6 337.667 240.043 333.831 239.618 329.802 240.305 325.246 241.413 320.653 241.413 320.653 242.6 319.467Z" fill="#F9D5D3"/><path d="M261.667 308.2C261.953 308.772 262.239 309.344 262.533 309.933 264.281 310.916 264.281 310.916 266 311.667 261.125 312.642 261.125 312.642 258.2 311.667 256.725 312.096 256.725 312.096 255.221 312.533 252.381 313.33 251.315 313.593 248.667 312.533 257.136 308.2 257.136 308.2 261.667 308.2Z" fill="#EBE5E9"/><path d="M229.6 323.8C229.886 324.372 230.172 324.944 230.467 325.533 231.325 325.819 232.183 326.105 233.067 326.4 232.069 328.539 231.292 329.908 229.6 331.6 227.758 331.275 227.758 331.275 226.133 330.733 226.565 327.537 227.087 325.876 229.6 323.8Z" fill="#C60201"/><path d="M277.267 313.4C280.27 315.116 280.27 315.116 283.333 316.867 282.475 317.153 281.617 317.439 280.733 317.733 280.447 318.448 280.161 319.163 279.867 319.9 279.438 320.973 279.438 320.973 279 322.067 276.4 322.933 276.4 322.933 274.504 322.121 273.986 321.817 273.467 321.513 272.933 321.2 273.791 320.914 274.649 320.628 275.533 320.333 275.856 319.187 276.145 318.03 276.4 316.867 276.972 316.581 277.544 316.295 278.133 316 277.847 315.142 277.561 314.284 277.267 313.4Z" fill="#121635"/><path d="M278.133 309.933C280.073 311.26 280.073 311.26 281.871 312.967 282.475 313.53 283.08 314.093 283.702 314.673 284.153 315.111 284.603 315.549 285.067 316 284.495 316.572 283.923 317.144 283.333 317.733 282.748 317.378 282.163 317.023 281.559 316.657 280.786 316.19 280.013 315.723 279.217 315.242 278.453 314.779 277.688 314.317 276.901 313.84 275.028 312.745 273.154 311.74 271.2 310.8 273.834 309.922 275.394 309.635 278.133 309.933Z" fill="#E4E6EF"/><path d="M260.8 351.533C263.072 352.442 264.088 352.963 265.35 355.108 265.564 355.645 265.779 356.181 266 356.733 265.428 356.733 264.856 356.733 264.267 356.733 264.553 358.449 264.839 360.165 265.133 361.933 264.275 361.933 263.417 361.933 262.533 361.933 262.533 361.361 262.533 360.789 262.533 360.2 261.961 359.914 261.389 359.628 260.8 359.333 260.411 357.762 260.411 357.762 260.204 355.867 260.129 355.241 260.054 354.615 259.977 353.971 259.963 353.452 259.948 352.934 259.933 352.4 260.219 352.114 260.505 351.828 260.8 351.533Z" fill="#5C0808"/><path d="M236.533 358.467C237.55 359.291 238.559 360.123 239.567 360.958 240.13 361.421 240.693 361.883 241.273 362.36 241.93 363.007 241.93 363.007 242.6 363.667 242.6 364.239 242.6 364.811 242.6 365.4 241.51 365.293 240.419 365.186 239.296 365.075 238.376 364.985 238.376 364.985 237.437 364.892 235.667 364.533 235.667 364.533 233.067 362.8 233.353 361.942 233.639 361.084 233.933 360.2 234.505 360.486 235.077 360.772 235.667 361.067 235.953 360.209 236.239 359.351 236.533 358.467Z" fill="#CF553B"/><path d="M217.467 355C218.972 357.795 219.972 360.645 220.933 363.667 214.975 362.908 214.975 362.908 214 361.933 213.965 360.489 213.963 359.044 214 357.6 214.572 357.314 215.144 357.028 215.733 356.733 216.305 356.161 216.877 355.589 217.467 355Z" fill="#120B16"/><path d="M229.6 342.867C229.886 342.867 230.172 342.867 230.467 342.867 230.572 343.515 230.677 344.163 230.785 344.83 230.93 345.684 231.075 346.537 231.225 347.417 231.366 348.261 231.507 349.106 231.652 349.976 232.155 352.203 232.814 353.891 233.933 355.867 234.505 355.867 235.077 355.867 235.667 355.867 235.953 357.011 236.239 358.155 236.533 359.333 235.675 359.333 234.817 359.333 233.933 359.333 229.338 354.371 229.376 349.284 229.6 342.867Z" fill="#F0A643"/><path d="M234.8 334.2C235.086 334.2 235.372 334.2 235.667 334.2 235.667 336.488 235.667 338.776 235.667 341.133 234.835 341.375 234.835 341.375 233.988 341.621 231.835 342.817 231.835 342.817 231.55 346.008 231.479 346.974 231.407 347.939 231.333 348.933 231.047 348.933 230.761 348.933 230.467 348.933 230.047 344.298 229.785 340.602 232.579 336.692 233.312 335.869 234.045 335.047 234.8 334.2Z" fill="#FCDB36"/><path d="M248.667 344.6C252.729 345.277 252.729 345.277 256.792 345.954 257.918 346.142 257.918 346.142 259.067 346.333 259.067 346.905 259.067 347.477 259.067 348.067 259.639 348.067 260.211 348.067 260.8 348.067 261.086 349.211 261.372 350.355 261.667 351.533 258.597 350.35 255.664 349.012 252.729 347.525 251.964 347.138 251.199 346.752 250.41 346.354 249.835 346.061 249.259 345.768 248.667 345.467 248.667 345.181 248.667 344.895 248.667 344.6Z" fill="#F5E4E4"/><path d="M220.933 364.533C222.667 366.7 222.667 366.7 224.4 368.867 225.365 370.02 225.365 370.02 226.35 371.196 227.867 373.2 227.867 373.2 227.867 374.933 226.437 374.933 225.007 374.933 223.533 374.933 223.426 374.379 223.319 373.825 223.208 373.254 223.03 372.664 222.851 372.074 222.667 371.467 222.095 371.181 221.523 370.895 220.933 370.6 220.933 368.598 220.933 366.596 220.933 364.533Z" fill="#17151C"/><path d="M220.933 333.333C221.219 333.333 221.505 333.333 221.8 333.333 221.676 334.192 221.552 335.052 221.424 335.937 220.932 339.381 220.469 342.83 220.012 346.279 219.934 346.872 219.855 347.465 219.774 348.075 219.582 349.517 219.391 350.958 219.2 352.4 218.914 352.4 218.628 352.4 218.333 352.4 218.042 345.42 218.288 339.835 220.933 333.333Z" fill="#822A2F"/><path d="M219.2 351.533C219.54 351.927 219.879 352.32 220.229 352.725 221.75 354.292 221.75 354.292 224.021 354.783 226.133 355.867 226.133 355.867 227.271 359.008 227.467 359.974 227.664 360.939 227.867 361.933 227.009 361.933 226.151 361.933 225.267 361.933 224.695 360.217 224.123 358.501 223.533 356.733 222.103 356.733 220.673 356.733 219.2 356.733 219.2 355.017 219.2 353.301 219.2 351.533Z" fill="#580511"/><path d="M238.267 367.133C239.697 367.419 241.127 367.705 242.6 368 242.028 368.572 241.456 369.144 240.867 369.733 241.009 372.824 241.009 372.824 241.733 375.8 242.305 376.086 242.877 376.372 243.467 376.667 242.037 376.953 240.607 377.239 239.133 377.533 238.847 376.675 238.561 375.817 238.267 374.933 238.839 374.647 239.411 374.361 240 374.067 239.33 373.075 239.33 373.075 238.646 372.062 238.235 371.294 237.824 370.525 237.4 369.733 237.686 368.875 237.972 368.017 238.267 367.133Z" fill="#36090A"/><path d="M241.733 349.8C242.591 350.372 243.449 350.944 244.333 351.533 244.333 352.105 244.333 352.677 244.333 353.267 243.797 353.517 243.261 353.767 242.708 354.025 240.751 354.946 240.751 354.946 239.133 356.733 236.425 356.408 236.425 356.408 233.933 355.867 234.219 355.009 234.505 354.151 234.8 353.267 236.23 353.267 237.66 353.267 239.133 353.267 239.419 352.409 239.705 351.551 240 350.667 240.572 350.381 241.144 350.095 241.733 349.8Z" fill="#F17C1E"/><path d="M151.6 329C151.6 329.572 151.6 330.144 151.6 330.733 146.954 331.711 142.454 331.684 137.733 331.6 137.733 331.028 137.733 330.456 137.733 329.867 139.556 329.552 141.38 329.247 143.204 328.946 144.22 328.775 145.235 328.604 146.282 328.428 149 328.133 149 328.133 151.6 329Z" fill="#061459"/><path d="M284.2 317.733C287.278 317.997 288.509 318.579 290.917 320.604 293.646 323.864 293.646 323.864 293.733 326.4 293.161 326.972 292.589 327.544 292 328.133 289.4 324.667 286.8 321.2 284.2 317.733Z" fill="#E6E5EC"/><path d="M233.067 362.8C234.783 363.372 236.499 363.944 238.267 364.533 238.088 364.998 237.909 365.463 237.725 365.942 237.286 368.722 238.133 370.611 239.133 373.2 234.22 368.545 234.22 368.545 233.067 365.4 233.067 364.542 233.067 363.684 233.067 362.8Z" fill="#600903"/><path d="M239.133 314.267C238.847 315.125 238.561 315.983 238.267 316.867 236.837 317.153 235.407 317.439 233.933 317.733 233.933 318.305 233.933 318.877 233.933 319.467 233.361 319.467 232.789 319.467 232.2 319.467 232.2 320.039 232.2 320.611 232.2 321.2 230.77 321.486 229.34 321.772 227.867 322.067 235.45 314.267 235.45 314.267 239.133 314.267Z" fill="#B81D22"/><path d="M247.8 334.2C248.372 335.058 248.944 335.916 249.533 336.8 248.675 336.8 247.817 336.8 246.933 336.8 246.361 338.23 245.789 339.66 245.2 341.133 246.344 341.419 247.488 341.705 248.667 342 248.667 342.858 248.667 343.716 248.667 344.6 245.776 343.404 244.172 342.13 242.6 339.4 242.886 338.542 243.172 337.684 243.467 336.8 244.897 336.514 246.327 336.228 247.8 335.933 247.8 335.361 247.8 334.789 247.8 334.2Z" fill="#EFDCE0"/><path d="M269.467 375.8C269.753 376.658 270.039 377.516 270.333 378.4 268.329 380.188 268.329 380.188 266 381.867 265.142 381.581 264.284 381.295 263.4 381 263.671 379.375 263.671 379.375 264.267 377.533 266.867 375.8 266.867 375.8 269.467 375.8Z" fill="#F3F2F3"/><path d="M230.467 365.4C231.611 365.4 232.755 365.4 233.933 365.4 235.128 366.825 235.128 366.825 236.154 368.704 237.511 371.146 238.804 373.038 240.867 374.933 236.351 373.514 233.403 370.987 231.062 366.862 230.866 366.38 230.669 365.897 230.467 365.4Z" fill="#B14939"/><path d="M156.8 316.867C159.543 317.283 161.318 318.305 163.517 319.954 164.314 320.546 164.314 320.546 165.128 321.149 165.725 321.603 165.725 321.603 166.333 322.067 165.475 322.925 164.617 323.783 163.733 324.667 162.758 323.837 161.783 323.006 160.808 322.175 160.265 321.712 159.722 321.25 159.163 320.773 158.049 319.801 156.979 318.779 155.933 317.733 156.219 317.447 156.505 317.161 156.8 316.867Z" fill="#E3E7F2"/><path d="M260.8 312.533C261.086 313.677 261.372 314.821 261.667 316 257.806 317.287 257.806 317.287 253.867 318.6 253.867 317.742 253.867 316.884 253.867 316 258.423 312.533 258.423 312.533 260.8 312.533Z" fill="#1B123C"/><path d="M209.667 350.667C209.953 350.667 210.239 350.667 210.533 350.667 210.533 356.673 210.533 362.679 210.533 368.867 210.247 368.867 209.961 368.867 209.667 368.867 209.381 364.291 209.095 359.715 208.8 355 207.942 355.429 207.942 355.429 207.067 355.867 208.692 351.642 208.692 351.642 209.667 350.667Z" fill="#EBEFF0"/><path d="M239.133 323.8C239.419 323.8 239.705 323.8 240 323.8 240.572 328.09 241.144 332.38 241.733 336.8 241.161 336.8 240.589 336.8 240 336.8 238.046 332.891 238.056 329.817 238.267 325.533 238.553 324.961 238.839 324.389 239.133 323.8Z" fill="#A11E1C"/><path d="M228.733 362.8C229.6 363.956 230.467 365.111 231.333 366.267 231.816 366.874 232.299 367.482 232.796 368.108 233.933 369.733 233.933 369.733 233.933 371.467 234.791 371.753 235.649 372.039 236.533 372.333 235.675 372.619 234.817 372.905 233.933 373.2 233.075 372.628 232.217 372.056 231.333 371.467 231.333 370.609 231.333 369.751 231.333 368.867 230.761 368.867 230.189 368.867 229.6 368.867 229.314 366.865 229.028 364.863 228.733 362.8Z" fill="#510801"/><path d="M180.2 368.867C183.438 369.946 183.829 371.15 185.4 374.067 183.684 374.353 181.968 374.639 180.2 374.933 180.2 372.931 180.2 370.929 180.2 368.867Z" fill="#040521"/><path d="M233.933 340.267C234.505 340.553 235.077 340.839 235.667 341.133 235.667 342.849 235.667 344.565 235.667 346.333 234.809 346.333 233.951 346.333 233.067 346.333 232.495 346.905 231.923 347.477 231.333 348.067 231.013 343.267 231.013 343.267 232.633 341.242 233.062 340.92 233.491 340.598 233.933 340.267Z" fill="#F5D609"/><path d="M239.133 335.933C242.432 337.185 243.697 338.836 245.2 342 244.914 342.572 244.628 343.144 244.333 343.733 241.733 342.867 241.733 342.867 240.271 340.321 239.133 337.667 239.133 337.667 239.133 335.933Z" fill="#831311"/><path d="M203.6 327.267C203.886 327.839 204.172 328.411 204.467 329 205.325 329.286 206.183 329.572 207.067 329.867 206.781 331.011 206.495 332.155 206.2 333.333 204.77 333.619 203.34 333.905 201.867 334.2 202.439 331.912 203.011 329.624 203.6 327.267Z" fill="#050718"/><path d="M233.933 374.067C236.078 374.496 236.078 374.496 238.267 374.933 238.553 376.363 238.839 377.793 239.133 379.267 239.705 379.267 240.277 379.267 240.867 379.267 240.581 380.125 240.295 380.983 240 381.867 239.142 381.295 238.284 380.723 237.4 380.133 237.4 378.989 237.4 377.845 237.4 376.667 236.828 376.667 236.256 376.667 235.667 376.667 235.667 376.095 235.667 375.523 235.667 374.933 235.095 374.647 234.523 374.361 233.933 374.067Z" fill="#1F0809"/><path d="M237.4 355.867C238.83 355.867 240.26 355.867 241.733 355.867 242.019 356.439 242.305 357.011 242.6 357.6 245.225 358.17 245.225 358.17 247.8 358.467 247.514 359.039 247.228 359.611 246.933 360.2 241.387 359.773 241.387 359.773 238.754 357.546 238.307 356.992 237.86 356.438 237.4 355.867Z" fill="#DD5628"/><path d="M222.667 316.867C224.383 316.867 226.099 316.867 227.867 316.867 227.867 318.297 227.867 319.727 227.867 321.2 226.151 320.628 224.435 320.056 222.667 319.467 222.667 318.609 222.667 317.751 222.667 316.867Z" fill="#1B0E13"/><path d="M226.133 368C226.419 368.572 226.705 369.144 227 369.733 227.858 370.019 228.716 370.305 229.6 370.6 230.789 371.721 231.95 372.873 233.067 374.067 232.781 374.925 232.495 375.783 232.2 376.667 229.659 374.194 227.309 371.769 225.267 368.867 225.553 368.581 225.839 368.295 226.133 368Z" fill="#2E1918"/><path d="M244.333 350.667C246.335 350.667 248.337 350.667 250.4 350.667 250.686 351.811 250.972 352.955 251.267 354.133 248.775 353.862 248.775 353.862 246.067 353.267 245.495 352.409 244.923 351.551 244.333 350.667Z" fill="#890703"/><path d="M262.533 345.467C264.678 346.325 264.678 346.325 266.867 347.2 266.581 347.772 266.295 348.344 266 348.933 265.142 348.933 264.284 348.933 263.4 348.933 263.114 347.789 262.828 346.645 262.533 345.467ZM262.533 348.933C263.887 350.017 263.887 350.017 265.133 351.533 264.862 353.429 264.862 353.429 264.267 355 264.267 354.428 264.267 353.856 264.267 353.267 263.409 352.981 262.551 352.695 261.667 352.4 261.953 351.256 262.239 350.112 262.533 348.933Z" fill="#E5DBDD"/><path d="M224.4 330.733C226.545 331.591 226.545 331.591 228.733 332.467 227 334.2 227 334.2 224.4 335.067 223.344 337.237 223.344 337.237 222.667 339.4 222.381 339.4 222.095 339.4 221.8 339.4 221.8 337.684 221.8 335.968 221.8 334.2 222.372 334.2 222.944 334.2 223.533 334.2 223.819 333.056 224.105 331.912 224.4 330.733Z" fill="#A2030C"/><path d="M168.933 367.133C169.219 367.133 169.505 367.133 169.8 367.133 169.267 372.787 169.267 372.787 167.579 374.879 167.168 375.183 166.757 375.487 166.333 375.8 165.467 373.2 165.467 373.2 166.14 371.619 167.071 370.124 168.002 368.629 168.933 367.133Z" fill="#DEDEED"/><path d="M293.733 361.933C294.019 362.505 294.305 363.077 294.6 363.667 295.458 363.953 296.316 364.239 297.2 364.533 295.913 366.678 295.913 366.678 294.6 368.867 293.742 367.723 292.884 366.579 292 365.4 292.572 364.256 293.144 363.112 293.733 361.933Z" fill="#EBEBEB"/><path d="M264.267 356.733C265.125 357.019 265.983 357.305 266.867 357.6 268.054 360.37 267.582 362.539 266.867 365.4 266.289 364.244 265.711 363.089 265.133 361.933 264.794 361.326 264.454 360.718 264.104 360.092 263.756 359.287 263.756 359.287 263.4 358.467 263.686 357.895 263.972 357.323 264.267 356.733Z" fill="#3F0C0B"/><path d="M289.4 343.733C289.972 344.019 290.544 344.305 291.133 344.6 291.991 344.314 292.849 344.028 293.733 343.733 294.6 344.6 294.6 344.6 294.654 346.821 294.636 347.518 294.618 348.215 294.6 348.933 293.742 348.647 292.884 348.361 292 348.067 292 347.495 292 346.923 292 346.333 290.856 346.619 289.712 346.905 288.533 347.2 288.819 346.056 289.105 344.912 289.4 343.733Z" fill="#00011C"/><path d="M250.4 319.467C251.375 320.929 251.375 320.929 252.133 322.933 251.375 325.317 251.375 325.317 250.4 327.267 250.114 326.695 249.828 326.123 249.533 325.533 248.961 325.533 248.389 325.533 247.8 325.533 249.425 321.417 249.425 321.417 250.4 319.467Z" fill="#14163B"/><path d="M174.133 352.4C174.991 352.686 175.849 352.972 176.733 353.267 175.446 356.27 175.446 356.27 174.133 359.333 173.561 359.047 172.989 358.761 172.4 358.467 173.158 353.375 173.158 353.375 174.133 352.4Z" fill="#151A36"/><path d="M245.2 344.6C249.317 345.25 249.317 345.25 251.267 347.2 250.4 348.067 250.4 348.067 248.179 348.121 247.133 348.094 247.133 348.094 246.067 348.067 245.781 346.923 245.495 345.779 245.2 344.6Z" fill="#75121D"/><path d="M238.267 336.8C240.054 338.317 240.054 338.317 241.733 340.267 241.517 342.217 241.517 342.217 240.867 343.733 240.009 343.447 239.151 343.161 238.267 342.867 238.267 340.865 238.267 338.863 238.267 336.8Z" fill="#A1021C"/><path d="M253 334.2C253.572 334.2 254.144 334.2 254.733 334.2 255.019 335.344 255.305 336.488 255.6 337.667 254.742 337.953 253.884 338.239 253 338.533 252.714 339.105 252.428 339.677 252.133 340.267 251.561 339.409 250.989 338.551 250.4 337.667 250.972 337.667 251.544 337.667 252.133 337.667 252.419 336.523 252.705 335.379 253 334.2Z" fill="#1C1837"/><path d="M278.133 327.267C278.991 327.553 279.849 327.839 280.733 328.133 281.591 328.133 282.449 328.133 283.333 328.133 283.619 328.991 283.905 329.849 284.2 330.733 282.77 331.019 281.34 331.305 279.867 331.6 279.009 330.456 278.151 329.312 277.267 328.133 277.553 327.847 277.839 327.561 278.133 327.267Z" fill="#DCDCE3"/><path d="M207.933 318.6C208.791 318.886 209.649 319.172 210.533 319.467 209.675 319.753 208.817 320.039 207.933 320.333 207.647 322.907 207.361 325.481 207.067 328.133 205.333 325.533 205.333 325.533 205.55 323.367 206.2 321.2 206.2 321.2 207.933 318.6Z" fill="#0B0F13"/><path d="M202.733 320.333C203.591 321.477 204.449 322.621 205.333 323.8 204.475 324.944 203.617 326.088 202.733 327.267 201.379 325.696 201.379 325.696 200.133 323.8 200.419 322.942 200.705 322.084 201 321.2 201.572 320.914 202.144 320.628 202.733 320.333Z" fill="#F3F3F6"/><path d="M118.667 370.6C119.525 370.6 120.383 370.6 121.267 370.6 121.267 372.03 121.267 373.46 121.267 374.933 120.123 374.933 118.979 374.933 117.8 374.933 117.514 374.075 117.228 373.217 116.933 372.333 117.505 371.761 118.077 371.189 118.667 370.6Z" fill="#F6F4F7"/><path d="M248.667 365.4C248.953 366.258 249.239 367.116 249.533 368 247.531 368.572 245.529 369.144 243.467 369.733 243.181 369.161 242.895 368.589 242.6 368 246.717 365.4 246.717 365.4 248.667 365.4Z" fill="#3C0401"/><path d="M220.933 359.333C221.791 359.619 222.649 359.905 223.533 360.2 223.819 362.488 224.105 364.776 224.4 367.133 222.214 365.422 221.806 364.562 221.204 361.771 221.115 360.966 221.025 360.162 220.933 359.333Z" fill="#4D1613"/><path d="M178.467 349.8C178.753 349.8 179.039 349.8 179.333 349.8 179.047 351.802 178.761 353.804 178.467 355.867 177.323 356.153 176.179 356.439 175 356.733 176.144 354.445 177.288 352.157 178.467 349.8Z" fill="#E4E4F0"/><path d="M263.4 348.933C265.567 350.017 265.567 350.017 267.733 351.533 267.733 352.677 267.733 353.821 267.733 355 266.875 355 266.017 355 265.133 355 264.561 352.998 263.989 350.996 263.4 348.933Z" fill="#FCFAF5"/><path d="M209.667 344.6C209.953 344.6 210.239 344.6 210.533 344.6 210.11 349.847 210.11 349.847 209.667 351.533 208.809 352.105 207.951 352.677 207.067 353.267 207.067 351.837 207.067 350.407 207.067 348.933 207.639 348.933 208.211 348.933 208.8 348.933 209.086 347.503 209.372 346.073 209.667 344.6Z" fill="#0A0711"/><path d="M288.533 339.4C289.105 339.686 289.677 339.972 290.267 340.267 290.267 340.839 290.267 341.411 290.267 342 290.839 342 291.411 342 292 342 291.729 343.679 291.729 343.679 291.133 345.467 290.275 345.753 289.417 346.039 288.533 346.333 287.583 343.482 287.84 342.249 288.533 339.4Z" fill="#222239"/><path d="M234.8 334.2C235.086 334.2 235.372 334.2 235.667 334.2 235.667 335.63 235.667 337.06 235.667 338.533 234.809 338.533 233.951 338.533 233.067 338.533 232.495 339.677 231.923 340.821 231.333 342 231.047 341.428 230.761 340.856 230.467 340.267 231.167 339.253 231.872 338.243 232.579 337.233 232.971 336.67 233.363 336.107 233.767 335.527 234.108 335.089 234.449 334.651 234.8 334.2Z" fill="#F9B95A"/><path d="M160.267 322.067C161.411 322.639 162.555 323.211 163.733 323.8 163.733 324.658 163.733 325.516 163.733 326.4 161.159 325.971 161.159 325.971 158.533 325.533 159.111 324.378 159.689 323.222 160.267 322.067Z" fill="#121642"/><path d="M241.733 313.4C242.305 313.686 242.877 313.972 243.467 314.267 243.181 315.411 242.895 316.555 242.6 317.733 241.17 317.447 239.74 317.161 238.267 316.867 238.553 316.009 238.839 315.151 239.133 314.267 239.991 313.981 240.849 313.695 241.733 313.4Z" fill="#D80904"/><path d="M256.467 309.933C256.181 310.791 255.895 311.649 255.6 312.533 253.312 312.819 251.024 313.105 248.667 313.4 251.097 310.739 252.773 309.933 256.467 309.933Z" fill="#FAE0D3"/><path d="M230.467 353.267C231.039 354.125 231.611 354.983 232.2 355.867 232.955 356.935 233.713 358 234.475 359.062 234.862 359.602 235.248 360.142 235.646 360.698 235.939 361.105 236.232 361.513 236.533 361.933 233.695 361.09 232.406 360.468 230.575 358.087 229.6 355.867 229.6 355.867 230.467 353.267Z" fill="#912606"/><path d="M266 348.067C268.145 348.925 268.145 348.925 270.333 349.8 270.333 350.658 270.333 351.516 270.333 352.4 268.331 351.542 266.329 350.684 264.267 349.8 264.839 349.228 265.411 348.656 266 348.067Z" fill="#E5EEE9"/><path d="M174.133 348.067C174.991 348.353 175.849 348.639 176.733 348.933 177.329 350.721 177.329 350.721 177.6 352.4 175.867 352.4 174.133 352.4 172.4 352.4 172.972 350.97 173.544 349.54 174.133 348.067Z" fill="#030930"/><path d="M233.067 315.133C233.639 315.419 234.211 315.705 234.8 316 232.512 317.716 230.224 319.432 227.867 321.2 228.733 317.733 228.733 317.733 230.846 316.163 231.579 315.823 232.312 315.483 233.067 315.133Z" fill="#FAD3CE"/><path d="M247.8 320.333C248.694 323.167 248.635 325.412 248.288 328.35 248.199 329.123 248.111 329.896 248.02 330.693 247.911 331.571 247.911 331.571 247.8 332.467 247.514 332.467 247.228 332.467 246.933 332.467 246.741 330.933 246.563 329.398 246.392 327.863 246.291 327.008 246.191 326.153 246.087 325.273 246.067 322.933 246.067 322.933 247.8 320.333Z" fill="#D3D5DA"/><path d="M260.8 311.667C259.37 312.811 257.94 313.955 256.467 315.133 255.895 314.847 255.323 314.561 254.733 314.267 255.019 313.409 255.305 312.551 255.6 311.667 258.2 310.8 258.2 310.8 260.8 311.667Z" fill="#E7EEF3"/><path d="M273.8 377.533C277.267 377.533 277.267 377.533 279.867 378.4 278.783 379.754 278.783 379.754 277.267 381 275.371 380.729 275.371 380.729 273.8 380.133 273.8 379.275 273.8 378.417 273.8 377.533Z" fill="#14121A"/><path d="M258.2 359.333C258.772 359.619 259.344 359.905 259.933 360.2 259.933 363.06 259.933 365.92 259.933 368.867 259.075 368.867 258.217 368.867 257.333 368.867 257.333 368.295 257.333 367.723 257.333 367.133 257.905 367.133 258.477 367.133 259.067 367.133 258.781 364.559 258.495 361.985 258.2 359.333Z" fill="#B32B21"/><path d="M260.8 360.2C261.372 360.2 261.944 360.2 262.533 360.2 263.105 361.63 263.677 363.06 264.267 364.533 263.409 364.533 262.551 364.533 261.667 364.533 261.381 365.105 261.095 365.677 260.8 366.267 260.8 364.265 260.8 362.263 260.8 360.2Z" fill="#4E0301"/><path d="M260.8 351.533C263.072 352.442 264.088 352.963 265.35 355.108 265.564 355.645 265.779 356.181 266 356.733 264.856 356.733 263.712 356.733 262.533 356.733 262.426 356.179 262.319 355.625 262.208 355.054 261.94 354.169 261.94 354.169 261.667 353.267 261.095 352.981 260.523 352.695 259.933 352.4 260.219 352.114 260.505 351.828 260.8 351.533Z" fill="#521A18"/><path d="M233.067 354.133C233.353 354.705 233.639 355.277 233.933 355.867 234.505 355.867 235.077 355.867 235.667 355.867 235.953 357.011 236.239 358.155 236.533 359.333 235.675 359.333 234.817 359.333 233.933 359.333 233.361 358.475 232.789 357.617 232.2 356.733 232.486 355.875 232.772 355.017 233.067 354.133Z" fill="#EF8A3A"/><path d="M244.333 351.533C247.336 352.82 247.336 352.82 250.4 354.133 248.883 355.108 248.883 355.108 246.933 355.867 244.983 355.108 244.983 355.108 243.467 354.133 243.753 353.275 244.039 352.417 244.333 351.533Z" fill="#ED5422"/><path d="M259.933 350.667C259.361 352.097 258.789 353.527 258.2 355 257.628 355 257.056 355 256.467 355 255.895 353.57 255.323 352.14 254.733 350.667 257.333 349.8 257.333 349.8 259.933 350.667Z" fill="#73111B"/><path d="M166.333 335.067C168.067 335.933 168.067 335.933 168.933 337.667 169.505 337.953 170.077 338.239 170.667 338.533 170.381 339.391 170.095 340.249 169.8 341.133 168.942 341.133 168.084 341.133 167.2 341.133 166.914 339.131 166.628 337.129 166.333 335.067Z" fill="#0C144E"/><path d="M244.333 311.667C245.191 311.953 246.049 312.239 246.933 312.533 246.361 313.963 245.789 315.393 245.2 316.867 244.342 316.009 243.484 315.151 242.6 314.267 243.172 313.409 243.744 312.551 244.333 311.667Z" fill="#CE1725"/></g></svg>